<?xml version="1.0" encoding="UTF-8"?>
<svg id="Layer_2" data-name="Layer 2" xmlns="http://www.w3.org/2000/svg" viewBox="0 0 260.21 60.86">
  <defs>
    <style>
      .cls-1 {
        fill: #093351;
      }

      .cls-1, .cls-2, .cls-3 {
        stroke-width: 0px;
      }

      .cls-2 {
        fill: #e4262b;
      }

      .cls-3 {
        fill: #fff;
      }
    </style>
  </defs>
  <g id="Layer_1-2" data-name="Layer 1">
    <rect class="cls-1" y="0" width="184.07" height="60.86"/>
    <rect class="cls-2" x="189.12" y="0" width="71.1" height="60.86"/>
    <path class="cls-3" d="m21.9,48.3H6.95V12.56h14.34c6.98,0,11.04,3.92,11.04,10.04,0,3.97-2.61,6.52-4.41,7.38,2.16,1,4.92,3.26,4.92,8.03,0,6.68-4.57,10.29-10.94,10.29m-1.16-29.51h-6.82v8.23h6.82c2.96,0,4.62-1.66,4.62-4.12s-1.66-4.11-4.62-4.11m.45,14.5h-7.28v8.78h7.28c3.16,0,4.67-2,4.67-4.42s-1.51-4.36-4.67-4.36"/>
    <path class="cls-3" d="m58.93,48.3l-6.97-14.25h-5.02v14.25h-6.98V12.57h14.01c7.28,0,11.59,4.96,11.59,10.93,0,5.02-3.06,8.14-6.52,9.38l7.98,15.41h-8.08Zm-5.42-29.51h-6.58v9.44h6.58c3.06,0,5.07-1.96,5.07-4.73s-2-4.71-5.07-4.71"/>
    <rect class="cls-3" x="72.78" y="12.57" width="6.98" height="35.72"/>
    <path class="cls-3" d="m110.01,44.48c-2.56,2.66-5.92,4.12-9.98,4.12s-7.13-1.41-9.64-3.92c-3.62-3.61-3.51-8.08-3.51-14.26s-.1-10.63,3.51-14.25c2.51-2.51,5.62-3.92,9.64-3.92,4.97,0,7.73,1.36,10.94,4.57l-4.71,4.72c-2-2.01-3.46-3.06-6.22-3.06-1.91,0-3.47.75-4.47,1.9-1.35,1.5-1.71,3.16-1.71,10.03s.35,8.59,1.71,10.09c1,1.16,2.56,1.86,4.47,1.86,2.11,0,3.61-.75,4.76-2.01,1.16-1.25,1.56-3.11,1.56-4.87v-1.25h-6.32v-5.82h13.3v5.12c0,5.17-.81,8.33-3.31,10.94"/>
    <polygon class="cls-3" points="139.1 48.3 139.1 33.34 127.01 33.34 127.01 48.3 120.04 48.3 120.04 12.57 127.01 12.57 127.01 27.17 139.1 27.17 139.1 12.57 146.08 12.57 146.08 48.3 139.1 48.3"/>
    <polygon class="cls-3" points="168.05 18.79 168.05 48.3 161.08 48.3 161.08 18.79 151.74 18.79 151.74 12.57 177.39 12.57 177.39 18.79 168.05 18.79"/>
    <g>
      <polygon class="cls-3" points="212.9 18.79 212.9 48.29 205.92 48.29 205.92 18.79 196.59 18.79 196.59 12.57 222.23 12.57 222.23 18.79 212.9 18.79"/>
      <polygon class="cls-3" points="240.89 48.29 235.68 48.29 223.88 12.57 231.11 12.57 238.29 35.85 245.46 12.57 252.74 12.57 240.89 48.29"/>
    </g>
  </g>
</svg>